<svg width="49" height="68" viewBox="0 0 49 68" fill="none" xmlns="http://www.w3.org/2000/svg">
<path d="M23.0808 1.48791L23.0809 1.48789C23.7314 0.837371 24.787 0.837371 25.4375 1.48789L27.9562 4.00661C28.6059 4.65624 28.6071 5.70866 27.959 6.36043C27.959 6.36052 27.9589 6.36061 27.9588 6.36069L10.8458 23.5526L10.1436 24.258L10.8457 24.9635L27.9579 42.1568L27.958 42.1569C28.6065 42.8081 28.6053 43.8605 27.9551 44.5107L25.4364 47.0294C24.7859 47.6799 23.7303 47.6799 23.0798 47.0294L1.48791 25.4364L1.48789 25.4364C0.837371 24.7859 0.837371 23.7303 1.48789 23.0798L23.0808 1.48791Z" fill="#4FF0C9" stroke="#4FF0C9" stroke-width="2"/>
<path d="M25.6952 66.1389L25.6951 66.1389C25.0446 66.7894 23.989 66.7894 23.3385 66.1389L20.8198 63.6202C20.1701 62.9706 20.1689 61.9181 20.817 61.2664C20.817 61.2663 20.8171 61.2662 20.8172 61.2661L37.9302 44.0742L38.6324 43.3688L37.9303 42.6633L20.8181 25.47L20.818 25.4699C20.1695 24.8187 20.1707 23.7663 20.8209 23.1161L23.3396 20.5974C23.9901 19.9469 25.0457 19.9469 25.6962 20.5974L47.2881 42.1904L47.2881 42.1904C47.9386 42.8409 47.9386 43.8965 47.2881 44.547L25.6952 66.1389Z" fill="#4FF0C9" stroke="#4FF0C9" stroke-width="2"/>
</svg>
